<svg xmlns="http://www.w3.org/2000/svg" width="24" height="24" viewBox="0 0 24 24"><g opacity="0.87"><rect width="24" height="24" fill="none"/><path d="M16.67,13.13A4.651,4.651,0,0,1,19,17v3h4V17C23,14.82,19.43,13.53,16.67,13.13Z" fill="#fff" fill-rule="evenodd"/><circle cx="4" cy="4" r="4" transform="translate(5 4)" fill="#fff"/><path d="M15,12a4,4,0,0,0,0-8,4.178,4.178,0,0,0-1.33.24,5.98,5.98,0,0,1,0,7.52A4.178,4.178,0,0,0,15,12Z" fill="#fff" fill-rule="evenodd"/><path d="M9,13c-2.67,0-8,1.34-8,4v3H17V17C17,14.34,11.67,13,9,13Z" fill="#fff" fill-rule="evenodd"/></g></svg>